<svg xmlns="http://www.w3.org/2000/svg" viewBox="0 0 194.25 113.44"><defs><style>.cls-1,.cls-2{fill:#fff;}.cls-2{font-size:11.13px;font-family:Montserrat-ExtraLight, Montserrat;font-weight:200;letter-spacing:0.35em;}.cls-3{letter-spacing:0.37em;}.cls-4{letter-spacing:0.36em;}.cls-5{letter-spacing:0.35em;}</style></defs><title>logo-footer</title><g id="Capa_2" data-name="Capa 2"><g id="Capa_2-2" data-name="Capa 2"><path class="cls-1" d="M52.41,60.89l36-35.54V0L61.48,26.22s-9.07,9.61-9.07,22.14Z"/><path class="cls-1" d="M125.9,60.89l-36-35.54V0l26.9,26.22s9.06,9.61,9.06,22.14Z"/><polygon class="cls-1" points="80 60.89 53.97 60.89 66.98 48.03 80 60.89"/><path class="cls-1" d="M39.81,49.08,41,63.46H39.81a19.39,19.39,0,0,0-4.6-8.09,14.49,14.49,0,0,0-10.45-3.93q-8.7,0-13.24,6.88A24.76,24.76,0,0,0,7.73,72.16a27.71,27.71,0,0,0,2.52,11.9,20.84,20.84,0,0,0,2.65,4.3,17.17,17.17,0,0,0,3.46,3.26,16,16,0,0,0,4.15,2.08,15,15,0,0,0,4.72.74,18.08,18.08,0,0,0,4.85-.64,19.87,19.87,0,0,0,4.56-1.88V78.75a23.07,23.07,0,0,0-.14-2.81,7.64,7.64,0,0,0-.38-1.69,2.35,2.35,0,0,0-.68-1,5.51,5.51,0,0,0-.95-.6,9,9,0,0,0-3.83-.57V70.82H46.29V72.1h-.83a6.46,6.46,0,0,0-2,.25,2.6,2.6,0,0,0-1.33,1,4.83,4.83,0,0,0-.76,2,21,21,0,0,0-.23,3.43V92.69a38.43,38.43,0,0,1-3.9,1.83,29.24,29.24,0,0,1-3.81,1.25,32,32,0,0,1-4,.72,39.09,39.09,0,0,1-4.31.23Q12,96.72,5.14,88.26A22.62,22.62,0,0,1,0,73.61,23.66,23.66,0,0,1,.47,69,26.1,26.1,0,0,1,4,60.15a26.58,26.58,0,0,1,2.86-3.74,21,21,0,0,1,7.68-5.55,25.09,25.09,0,0,1,9.62-1.78q1.57,0,2.76.12a18.69,18.69,0,0,1,2.28.37,23.58,23.58,0,0,1,2.34.67c.81.28,1.78.62,2.9,1a8.8,8.8,0,0,0,2.52.7A1.33,1.33,0,0,0,38,51.39a4.47,4.47,0,0,0,.56-2.31Z"/><path class="cls-1" d="M66.86,91.25a45.59,45.59,0,0,1-6,4.23,9,9,0,0,1-3.86.84,7.43,7.43,0,0,1-2.93-.57,6.86,6.86,0,0,1-2.32-1.61,7.7,7.7,0,0,1-1.52-2.51,9,9,0,0,1-.56-3.24A8.13,8.13,0,0,1,50.07,86a7.69,7.69,0,0,1,1.06-2.1,10.26,10.26,0,0,1,1.8-1.9,20.83,20.83,0,0,1,2.57-1.78,73.17,73.17,0,0,1,11.36-4.9V74.08a16,16,0,0,0-.39-3.86,6.58,6.58,0,0,0-1.11-2.47,3.83,3.83,0,0,0-1.8-1.31,7,7,0,0,0-2.42-.39,5.58,5.58,0,0,0-1.93.32,4.62,4.62,0,0,0-1.46.84,3.58,3.58,0,0,0-.92,1.21,3.17,3.17,0,0,0-.32,1.39l.07,2a3.39,3.39,0,0,1-.79,2.39,2.72,2.72,0,0,1-2.07.84,2.58,2.58,0,0,1-2-.88,3.39,3.39,0,0,1-.79-2.38,5.79,5.79,0,0,1,.75-2.79,8.23,8.23,0,0,1,2.19-2.49,11.34,11.34,0,0,1,3.53-1.78A15.55,15.55,0,0,1,62.15,64a15.73,15.73,0,0,1,6.05,1,6.54,6.54,0,0,1,3.59,3.6,18.24,18.24,0,0,1,.61,5.91V85c0,1.48,0,2.66,0,3.56s.07,1.51.12,1.85a2.23,2.23,0,0,0,.55,1.31,1.35,1.35,0,0,0,.89.33,1.91,1.91,0,0,0,.64-.1,2.51,2.51,0,0,0,.71-.4c.26-.2.58-.48.94-.82l1.37-1.36v1.88q-3.8,5-7.19,5a3.33,3.33,0,0,1-2.62-1.15A5.9,5.9,0,0,1,66.86,91.25Zm0-2.19V77.34c-1.71.67-3.1,1.24-4.19,1.71a25.1,25.1,0,0,0-2.37,1.14,11.88,11.88,0,0,0-3.79,3.11,5.93,5.93,0,0,0-1.14,3.51,6.27,6.27,0,0,0,.38,2.24,6.13,6.13,0,0,0,1,1.78A4.81,4.81,0,0,0,58.32,92a4.15,4.15,0,0,0,1.82.42Q62.69,92.42,66.86,89.06Z"/><path class="cls-1" d="M89,64v6.92Q92.86,64,96.89,64a4.6,4.6,0,0,1,1.68.3,4.36,4.36,0,0,1,1.36.83,3.74,3.74,0,0,1,.91,1.19,3.3,3.3,0,0,1,.32,1.41,3.07,3.07,0,0,1-.88,2.22,2.67,2.67,0,0,1-3.36.53c-.47-.24-.93-.5-1.39-.78l-1.26-.79a1.82,1.82,0,0,0-.87-.37,1.79,1.79,0,0,0-1,.38A6.17,6.17,0,0,0,91.31,70a16.37,16.37,0,0,0-1.17,1.64A22.77,22.77,0,0,0,89,73.74V88.49A17,17,0,0,0,89.13,91a4.26,4.26,0,0,0,.72,1.88,3.46,3.46,0,0,0,1.63,1.19,8,8,0,0,0,2.86.42v1.21H78.58V94.47a11.52,11.52,0,0,0,2.42-.2,2.59,2.59,0,0,0,1.48-.81,3.51,3.51,0,0,0,.74-1.73,18,18,0,0,0,.2-3V76.83a43.84,43.84,0,0,0-.24-6.38,2.17,2.17,0,0,0-2.25-2,6.76,6.76,0,0,0-2.35.5l-.34-1.21L87.55,64Z"/><path class="cls-1" d="M120.31,91.25a45.59,45.59,0,0,1-6,4.23,8.93,8.93,0,0,1-3.86.84,7.43,7.43,0,0,1-2.93-.57,6.82,6.82,0,0,1-2.31-1.61,7.55,7.55,0,0,1-1.53-2.51,9,9,0,0,1-.56-3.24,7.82,7.82,0,0,1,.36-2.42,7.38,7.38,0,0,1,1-2.1,10.26,10.26,0,0,1,1.8-1.9A21.62,21.62,0,0,1,109,80.19a73.17,73.17,0,0,1,11.36-4.9V74.08a16,16,0,0,0-.39-3.86,6.58,6.58,0,0,0-1.11-2.47A3.86,3.86,0,0,0,117,66.44a7.1,7.1,0,0,0-2.42-.39,5.64,5.64,0,0,0-1.94.32,4.74,4.74,0,0,0-1.46.84,3.58,3.58,0,0,0-.92,1.21,3.32,3.32,0,0,0-.32,1.39l.07,2a3.39,3.39,0,0,1-.79,2.39,2.72,2.72,0,0,1-2.07.84,2.59,2.59,0,0,1-2-.88,3.39,3.39,0,0,1-.79-2.38,5.69,5.69,0,0,1,.76-2.79,8.06,8.06,0,0,1,2.18-2.49,11.34,11.34,0,0,1,3.53-1.78,17.79,17.79,0,0,1,10.83.37,6.59,6.59,0,0,1,3.6,3.6,18.63,18.63,0,0,1,.6,5.91V85c0,1.48,0,2.66.05,3.56s.07,1.51.12,1.85a2.29,2.29,0,0,0,.55,1.31,1.35,1.35,0,0,0,.89.33,1.91,1.91,0,0,0,.64-.1,2.51,2.51,0,0,0,.71-.4,11.1,11.1,0,0,0,.94-.82l1.38-1.36v1.88q-3.81,5-7.19,5a3.3,3.3,0,0,1-2.62-1.15A5.84,5.84,0,0,1,120.31,91.25Zm0-2.19V77.34c-1.7.67-3.1,1.24-4.19,1.71a23.5,23.5,0,0,0-2.36,1.14A11.82,11.82,0,0,0,110,83.3a5.93,5.93,0,0,0-1.14,3.51,6.5,6.5,0,0,0,.38,2.24,5.94,5.94,0,0,0,1,1.78A4.66,4.66,0,0,0,111.77,92a4.18,4.18,0,0,0,1.82.42Q116.14,92.42,120.31,89.06Z"/><path class="cls-1" d="M141.64,84.46a10.31,10.31,0,0,1-4.35-3.85,10.18,10.18,0,0,1-1.49-5.46,10.5,10.5,0,0,1,.9-4.31,10.72,10.72,0,0,1,2.56-3.55,12.51,12.51,0,0,1,3.88-2.4,14.37,14.37,0,0,1,12.54,1.26h6.52l1.13,0a2.43,2.43,0,0,1,.57.07.4.4,0,0,1,.22.11.82.82,0,0,0,.1.17,2.11,2.11,0,0,1,.2,1.08c0,.33,0,.61,0,.82a.71.71,0,0,1-.2.49,1.14,1.14,0,0,1-.64.21,11.68,11.68,0,0,1-1.36,0h-4a9.86,9.86,0,0,1,1.89,6.19,9.76,9.76,0,0,1-3.3,7.32A11.93,11.93,0,0,1,153,84.93a14.22,14.22,0,0,1-5,.84,17.33,17.33,0,0,1-4.67-.67,8.36,8.36,0,0,0-2,2.23,3.72,3.72,0,0,0-.5,1.63,1.76,1.76,0,0,0,.2.88,1.64,1.64,0,0,0,1,.62,10.77,10.77,0,0,0,2.23.4c1,.1,2.33.17,4,.22,2.31.07,4.21.13,5.7.2s2.58.16,3.27.27a9.06,9.06,0,0,1,2.82.81,7.19,7.19,0,0,1,2.17,1.51A6.63,6.63,0,0,1,163.53,96,6.7,6.7,0,0,1,164,98.5q0,3.8-3.57,7.13-5.26,4.91-13.67,4.9a23.12,23.12,0,0,1-4.7-.5,22.55,22.55,0,0,1-4.34-1.36,11,11,0,0,1-3.19-2,3.43,3.43,0,0,1-1.24-2.52,3.71,3.71,0,0,1,.15-1,5.65,5.65,0,0,1,.47-1.11,10.68,10.68,0,0,1,.84-1.29Q135.3,100,136,99q.24-.3,3.43-3.63A10.32,10.32,0,0,1,137,93.55a2.76,2.76,0,0,1-.72-1.87,5.18,5.18,0,0,1,.16-1.26,5.25,5.25,0,0,1,.74-1.49A14.94,14.94,0,0,1,138.8,87C139.51,86.3,140.45,85.45,141.64,84.46Zm-.33,11.22q-3.19,3.46-3.2,5.91a2.76,2.76,0,0,0,.93,2,7.69,7.69,0,0,0,2.5,1.55,18.23,18.23,0,0,0,3.71,1,28.29,28.29,0,0,0,4.52.35,20.41,20.41,0,0,0,5.26-.6,12.85,12.85,0,0,0,3.68-1.57,6.77,6.77,0,0,0,2.15-2.15,4.59,4.59,0,0,0,.7-2.37,2.72,2.72,0,0,0-.37-1.47,2.55,2.55,0,0,0-1.32-1,11.24,11.24,0,0,0-2.64-.61,43.07,43.07,0,0,0-4.3-.29q-3.8-.09-6.69-.3C144.32,96,142.67,95.86,141.31,95.68Zm6.18-30.07a5.57,5.57,0,0,0-2.29.49,5,5,0,0,0-1.86,1.48,7.43,7.43,0,0,0-1.25,2.52,12.73,12.73,0,0,0-.45,3.58,18.4,18.4,0,0,0,.45,4.2,11.11,11.11,0,0,0,1.33,3.3,6.58,6.58,0,0,0,2.12,2.17,5.19,5.19,0,0,0,2.82.77,5.7,5.7,0,0,0,2.35-.47,4.76,4.76,0,0,0,1.85-1.44,7.21,7.21,0,0,0,1.21-2.47,12.77,12.77,0,0,0,.44-3.54,18.49,18.49,0,0,0-.46-4.19,11.84,11.84,0,0,0-1.31-3.36,6.73,6.73,0,0,0-2.1-2.23A5.11,5.11,0,0,0,147.49,65.61Z"/><path class="cls-1" d="M173,76.5a19.59,19.59,0,0,0,.9,6.15,14.72,14.72,0,0,0,2.46,4.62,10.78,10.78,0,0,0,3.57,2.89,9.7,9.7,0,0,0,4.29,1,8.53,8.53,0,0,0,5.25-1.67,12.27,12.27,0,0,0,3.75-5.69l1,.67a16.14,16.14,0,0,1-1.41,4.44,14.78,14.78,0,0,1-2.67,3.89,12.91,12.91,0,0,1-3.8,2.77,10.51,10.51,0,0,1-4.72,1.06,12.27,12.27,0,0,1-5.19-1.12,13,13,0,0,1-4.26-3.19,15.58,15.58,0,0,1-2.91-5,19,19,0,0,1-1.07-6.6,21.33,21.33,0,0,1,1.09-7.11,15.6,15.6,0,0,1,3-5.26,12.59,12.59,0,0,1,4.52-3.25,14.13,14.13,0,0,1,5.6-1.11,12.21,12.21,0,0,1,4.72.89,10.86,10.86,0,0,1,3.74,2.53,11.66,11.66,0,0,1,2.47,4,14.11,14.11,0,0,1,.89,5.16Zm0-2h14.24a12.09,12.09,0,0,0-.7-4.17A6.65,6.65,0,0,0,184,67.43a6.3,6.3,0,0,0-3.48-1.08,6.6,6.6,0,0,0-2.65.56,7.35,7.35,0,0,0-2.32,1.61,8.85,8.85,0,0,0-1.73,2.57A10.4,10.4,0,0,0,173,74.55Z"/><text class="cls-2" transform="translate(2.67 110.55)">C<tspan class="cls-3" x="11.84" y="0">O</tspan><tspan class="cls-4" x="25.22" y="0">N</tspan><tspan class="cls-5" x="38.26" y="0">V</tspan><tspan class="cls-3" x="49.69" y="0">ERSIONS</tspan></text></g></g></svg>